HIERARCHY
ROOT Joint1
{
	OFFSET 0.000000 0.000000 0.000000
	CHANNELS 6 Xposition Yposition Zposition Xrotation Yrotation Zrotation
	JOINT Joint2
	{
		OFFSET -0.000000 0.000000 1.456275
		CHANNELS 6 Xposition Yposition Zposition Xrotation Yrotation Zrotation
		JOINT Joint3
		{
			OFFSET -0.000000 0.000002 1.471446
			CHANNELS 6 Xposition Yposition Zposition Xrotation Yrotation Zrotation
			JOINT Joint4
			{
				OFFSET 0.625745 0.000000 0.917755
				CHANNELS 6 Xposition Yposition Zposition Xrotation Yrotation Zrotation
				JOINT Joint5
				{
					OFFSET -0.629534 0.000001 0.940221
					CHANNELS 6 Xposition Yposition Zposition Xrotation Yrotation Zrotation
					JOINT Joint6
					{
						OFFSET -0.000001 0.113772 1.960660
						CHANNELS 6 Xposition Yposition Zposition Xrotation Yrotation Zrotation
						JOINT Joint7
						{
							OFFSET -0.669733 -0.113771 0.388340
							CHANNELS 6 Xposition Yposition Zposition Xrotation Yrotation Zrotation
							End Site
							{
								OFFSET 0.005509 0.005509 0.438980
							}
						}
					}
				}
			}
		}
	}
}
MOTION
Frames: 17
Frame Time: 0.041667
0.000000 0.000000 0.000000 -0.000000 1.019410 -0.025872 -0.000000 -0.000000 1.456275 0.000000 -45.007648 0.000000 -0.000000 0.000002 1.471446 0.000000 -1.133459 -0.078253 0.625744 0.000000 0.917755 0.000004 134.991995 -0.000001 -0.629535 0.000001 0.940221 -0.000000 1.709736 -0.088674 -0.000001 0.113772 1.960661 -88.297011 90.026941 0.004675 -0.669733 -0.113771 0.388339 -0.703764 3.566196 134.884912 
0.000000 0.000000 0.000000 -0.000000 1.019410 -0.098036 -0.000000 0.000000 1.456275 0.000000 -45.062723 -0.000000 -0.000000 0.000002 1.471446 -0.000000 -1.133457 -0.198200 0.625745 0.000000 0.917755 0.000004 134.903326 -0.000001 -0.629534 0.000001 0.940221 -0.000000 1.709736 -0.302458 -0.000000 0.113772 1.960661 -88.302728 90.165566 0.000770 -0.669733 -0.113771 0.388340 -0.699587 3.566179 134.649776 
0.000000 0.000000 0.000000 -0.000000 1.019410 -0.211852 -0.000000 -0.000000 1.456275 0.000000 -45.149606 0.000000 -0.000000 0.000002 1.471446 -0.000000 -1.133458 -0.387377 0.625744 0.000000 0.917755 0.000004 134.763485 -0.000001 -0.629533 0.000001 0.940221 0.000000 1.709736 -0.639628 -0.000001 0.113772 1.960661 -88.303384 90.384207 0.000328 -0.669733 -0.113771 0.388340 -0.693000 3.566117 134.278910 
0.000000 0.000000 0.000000 -0.000000 1.019410 -0.362033 -0.000000 -0.000000 1.456275 -0.000000 -45.264231 -0.000000 -0.000000 0.000002 1.471446 -0.000000 -1.133457 -0.636999 0.625745 0.000000 0.917755 0.000004 134.578960 -0.000001 -0.629533 0.000001 0.940221 -0.000000 1.709736 -1.084531 -0.000001 0.113772 1.960660 -88.303609 90.672701 0.000168 -0.669733 -0.113771 0.388340 -0.684310 3.565971 133.789568 
0.000000 0.000000 0.000000 -0.000000 1.019410 -0.543296 -0.000000 0.000000 1.456275 0.000000 -45.402590 -0.000000 -0.000000 0.000002 1.471446 -0.000000 -1.133459 -0.938282 0.625744 0.000000 0.917755 0.000004 134.356255 -0.000001 -0.629533 0.000001 0.940221 0.000000 1.709736 -1.621511 -0.000001 0.113772 1.960661 -88.303698 91.020897 0.000120 -0.669733 -0.113771 0.388340 -0.673823 3.565695 133.198934 
0.000000 0.000000 0.000000 -0.000000 1.019410 -0.750355 -0.000000 0.000000 1.456275 0.000000 -45.560623 0.000000 -0.000000 0.000002 1.471445 0.000000 -1.133460 -1.282443 0.625745 0.000000 0.917755 0.000003 134.101844 -0.000001 -0.629534 0.000001 0.940221 0.000000 1.709736 -2.234912 -0.000001 0.113772 1.960660 -88.303752 91.418653 0.000087 -0.669733 -0.113771 0.388340 -0.661847 3.565250 132.524262 
0.000000 0.000000 0.000000 -0.000000 1.019410 -0.977926 -0.000000 -0.000000 1.456275 -0.000000 -45.734322 -0.000000 -0.000000 0.000002 1.471446 -0.000000 -1.133456 -1.660698 0.625745 0.000000 0.917755 0.000004 133.822230 -0.000001 -0.629534 0.000001 0.940221 -0.000000 1.709736 -2.909078 -0.000001 0.113772 1.960660 -88.303780 91.855813 0.000066 -0.669733 -0.113771 0.388339 -0.648693 3.564597 131.782749 
0.000000 0.000000 0.000000 -0.000000 1.019410 -1.220725 -0.000000 0.000000 1.456275 0.000000 -45.919652 -0.000000 -0.000000 0.000002 1.471446 0.000000 -1.133457 -2.064263 0.625744 0.000000 0.917755 0.000003 133.523914 -0.000001 -0.629534 0.000001 0.940221 0.000000 1.709736 -3.628355 -0.000001 0.113772 1.960661 -88.303807 92.322226 0.000054 -0.669733 -0.113771 0.388340 -0.634669 3.563714 130.991622 
0.000000 0.000000 0.000000 -0.000000 1.019410 -1.473466 -0.000000 0.000000 1.456275 0.000000 -46.112557 0.000000 -0.000001 0.000002 1.471446 -0.000000 -1.133458 -2.484354 0.625744 0.000000 0.917755 0.000004 133.213373 -0.000001 -0.629534 0.000001 0.940221 0.000000 1.709736 -4.377086 -0.000001 0.113772 1.960661 -88.303814 92.807729 0.000045 -0.669733 -0.113771 0.388340 -0.620084 3.562588 130.168092 
0.000000 0.000000 0.000000 -0.000000 1.019410 -1.732826 -0.000000 0.000000 1.456275 -0.000000 -46.310520 -0.000000 -0.000000 0.000002 1.471446 -0.000000 -1.133461 -2.915444 0.625745 0.000000 0.917755 0.000003 132.894717 -0.000002 -0.629534 0.000001 0.940221 -0.000000 1.709737 -5.145421 -0.000000 0.113772 1.960660 -88.303827 93.305951 0.000035 -0.669733 -0.113771 0.388340 -0.605137 3.561217 129.323007 
0.000000 0.000000 0.000000 -0.000000 1.019410 -2.003315 -0.000000 0.000000 1.456275 0.000000 -46.516973 -0.000000 -0.000001 0.000002 1.471446 0.000000 -1.133463 -3.365035 0.625745 0.000000 0.917755 0.000004 132.562360 -0.000001 -0.629534 0.000001 0.940221 0.000000 1.709737 -5.946731 -0.000000 0.113772 1.960660 -88.303834 93.825550 0.000030 -0.669733 -0.113771 0.388340 -0.589572 3.559551 128.441680 
0.000000 0.000000 0.000000 -0.000000 1.019410 -2.291407 -0.000000 0.000000 1.456275 0.000000 -46.736867 -0.000000 -0.000001 0.000002 1.471446 0.000000 -1.133461 -3.843884 0.625745 0.000000 0.917755 0.000004 132.208393 -0.000001 -0.629534 0.000001 0.940221 -0.000000 1.709737 -6.800187 -0.000000 0.113772 1.960661 -88.303841 94.378973 0.000025 -0.669733 -0.113771 0.388340 -0.573024 3.557515 127.502952 
0.000000 0.000000 0.000000 -0.000000 1.019410 -2.603575 -0.000000 0.000000 1.456275 0.000000 -46.975135 0.000000 -0.000000 0.000002 1.471446 -0.000000 -1.133459 -4.362750 0.625745 0.000000 0.917755 0.000004 131.824850 -0.000001 -0.629534 0.000001 0.940221 0.000000 1.709737 -7.724964 -0.000000 0.113772 1.960661 -88.303848 94.978630 0.000024 -0.669733 -0.113771 0.388341 -0.555133 3.555004 126.485814 
0.000000 0.000000 0.000000 -0.000000 1.019410 -2.946291 -0.000000 -0.000000 1.456275 0.000000 -47.236721 -0.000000 -0.000000 0.000002 1.471446 -0.000000 -1.133464 -4.932391 0.625745 0.000000 0.917755 0.000003 131.403769 -0.000002 -0.629534 0.000001 0.940221 0.000000 1.709737 -8.740239 -0.000001 0.113772 1.960660 -88.303848 95.636978 0.000021 -0.669733 -0.113771 0.388340 -0.535546 3.551882 125.369119 
0.000000 0.000000 0.000000 -0.000000 1.019410 -3.333310 -0.000000 0.000000 1.456275 0.000000 -47.532116 0.000000 -0.000000 0.000002 1.471446 0.000000 -1.133460 -5.575670 0.625745 0.000000 0.917755 0.000005 130.928251 -0.000002 -0.629534 0.000001 0.940221 -0.000001 1.709737 -9.886759 -0.000001 0.113772 1.960660 -88.303855 96.380431 0.000013 -0.669733 -0.113771 0.388340 -0.513506 3.547897 124.108089 
0.000000 0.000000 0.000000 -0.000000 1.019410 -3.807526 -0.000000 0.000000 1.456275 -0.000000 -47.894069 0.000000 -0.000001 0.000002 1.471446 0.000000 -1.133462 -6.363883 0.625745 0.000000 0.917755 0.000004 130.345595 -0.000002 -0.629533 0.000001 0.940221 0.000001 1.709736 -11.291595 -0.000001 0.113772 1.960661 -88.303862 97.291387 0.000010 -0.669733 -0.113771 0.388341 -0.486629 3.542360 122.562964 
0.000000 0.000000 0.000000 -0.000000 1.019410 -4.419114 -0.000000 0.000000 1.456275 -0.000001 -48.360881 -0.000000 -0.000000 0.000002 1.471446 -0.000000 -1.133460 -7.380426 0.625744 0.000000 0.917755 0.000005 129.594152 0.000001 -0.629534 0.000001 0.940221 0.000000 1.709736 -13.103389 -0.000000 0.113772 1.960660 -88.303862 98.466227 0.000009 -0.669733 -0.113771 0.388339 -0.452203 3.534157 120.570242 
